#!OML:ASF H:\Dans Jumps\Project 1\Capture day 1\Session 1\subject.ASF
:FULLY-SPECIFIED
:DEGREES
103
root 0.68923 17.4459 -13.7919 6.35412 -2.20987 -1.99466
lowerback -1.45922 0.15831 0.729279
upperback 1.34922 0.160404 1.60752
thorax 2.19874 0.0779762 1.24534
lowerneck -15.5746 -0.0744564 -2.22243
upperneck 17.9622 0.246219 0.938099
head 8.13449 0.0587545 0.708024
rclavicle 1.44119e-015 -4.77083e-015
rhumerus -23.0144 -13.6829 -80.96
rradius 25.8009
rwrist 31.1964
rhand -18.5463 -25.6404
rfingers 7.12502
rthumb 7.74309 -55.4786
lclavicle 1.44119e-015 -4.77083e-015
lhumerus -22.2529 -0.787893 87.6202
lradius 19.8038
lwrist 5.40093
lhand -24.5555 -3.654
lfingers 7.12502
lthumb 1.94086 26.3169
rfemur -13.9876 -2.72807 20.4364
rtibia 24.094
rfoot -15.3314 -2.17664
rtoes 8.36938
lfemur -13.3686 7.19634 -17.9608
ltibia 23.3584
lfoot -12.5759 8.7566
ltoes -6.49876
104
root 0.692107 17.4407 -13.8134 6.45033 -2.28726 -2.00286
lowerback -1.27759 0.173827 0.735764
upperback 1.3776 0.183465 1.61606
thorax 2.12537 0.0895038 1.25052
lowerneck -15.622 -0.0666669 -2.22731
upperneck 17.9655 0.261557 0.927042
head 8.1438 0.0645805 0.707019
rclavicle 3.47873e-016 -6.55989e-015
rhumerus -22.8746 -13.5627 -80.9835
rradius 25.8698
rwrist 31.1199
rhand -18.5756 -25.5957
rfingers 7.12502
rthumb 7.71478 -55.435
lclavicle 3.47873e-016 -6.55989e-015
lhumerus -22.1904 -0.855787 87.6022
lradius 19.9606
lwrist 5.67855
lhand -24.5513 -3.69171
lfingers 7.12502
lthumb 1.94496 26.2792
rfemur -14.3419 -2.66824 20.4441
rtibia 24.3841
rfoot -15.3508 -2.17059
rtoes 8.22981
lfemur -13.7295 7.22519 -17.987
ltibia 23.6986
lfoot -12.5951 8.82942
ltoes -6.57293
105
root 0.695022 17.435 -13.8367 6.55273 -2.36998 -2.01651
lowerback -1.07854 0.19132 0.745314
upperback 1.40859 0.209355 1.62661
thorax 2.04488 0.102472 1.25597
lowerneck -15.6684 -0.0651511 -2.25329
upperneck 17.9612 0.269863 0.933244
head 8.15046 0.0674304 0.714419
rclavicle 5.36719e-015 -8.15017e-015
rhumerus -22.739 -13.43 -81.0027
rradius 25.9487
rwrist 31.0338
rhand -18.6106 -25.5459
rfingers 7.12502
rthumb 7.68106 -55.3864
lclavicle 5.36719e-015 -8.15017e-015
lhumerus -22.1283 -0.920962 87.5773
lradius 20.1188
lwrist 5.9784
lhand -24.5504 -3.74857
lfingers 7.12502
lthumb 1.94582 26.2223
rfemur -14.7183 -2.60089 20.4583
rtibia 24.6907
rfoot -15.3743 -2.16812
rtoes 8.09004
lfemur -14.1177 7.2617 -18.0088
ltibia 24.0669
lfoot -12.6209 8.90305
ltoes -6.64422
106
root 0.698017 17.4285 -13.862 6.66226 -2.45911 -2.03119
lowerback -0.860758 0.210876 0.753265
upperback 1.4418 0.238364 1.63804
thorax 1.95607 0.116964 1.26309
lowerneck -15.715 -0.0663171 -2.28959
upperneck 17.9475 0.27558 0.946578
head 8.15405 0.0691342 0.725567
rclavicle 4.67144e-015 0
rhumerus -22.6089 -13.2891 -81.0166
rradius 26.0389
rwrist 30.936
rhand -18.6476 -25.4932
rfingers 7.12502
rthumb 7.64529 -55.335
lclavicle 4.67144e-015 0
lhumerus -22.0669 -0.987863 87.5462
lradius 20.2749
lwrist 6.29194
lhand -24.5556 -3.82561
lfingers 7.12502
lthumb 1.94074 26.1453
rfemur -15.1229 -2.52987 20.4742
rtibia 25.0173
rfoot -15.4016 -2.1702
rtoes 7.92396
lfemur -14.5352 7.30824 -18.0317
ltibia 24.4632
lfoot -12.6536 8.97629
ltoes -6.71518
107
root 0.701084 17.4211 -13.8892 6.77903 -2.55316 -2.04731
lowerback -0.625153 0.232842 0.762026
upperback 1.47929 0.270875 1.64896
thorax 1.86162 0.133215 1.26907
lowerneck -15.7685 -0.0699619 -2.33734
upperneck 17.9272 0.278567 0.971318
head 8.15662 0.0699844 0.742084
rclavicle 4.17448e-015 -1.78906e-014
rhumerus -22.4781 -13.1541 -81.0258
rradius 26.1326
rwrist 30.8374
rhand -18.6881 -25.4447
rfingers 7.12502
rthumb 7.60626 -55.2879
lclavicle 4.17448e-015 -1.78906e-014
lhumerus -22.0022 -1.04722 87.5056
lradius 20.4246
lwrist 6.58587
lhand -24.5797 -3.9255
lfingers 7.12502
lthumb 1.9175 26.0456
rfemur -15.5573 -2.45626 20.4922
rtibia 25.3689
rfoot -15.4358 -2.17564
rtoes 7.757
lfemur -14.9817 7.36857 -18.0555
ltibia 24.8867
lfoot -12.6962 9.04262
ltoes -6.78373
108
root 0.704188 17.4129 -13.9184 6.90504 -2.6498 -2.05773
lowerback -0.37116 0.256181 0.763263
upperback 1.51904 0.305695 1.65822
thorax 1.7591 0.150523 1.27735
lowerneck -15.8189 -0.0728411 -2.38296
upperneck 17.8914 0.282155 0.995586
head 8.15345 0.0713241 0.758077
rclavicle -7.7526e-015 -7.7526e-015
rhumerus -22.3468 -13.0373 -81.0256
rradius 26.224
rwrist 30.7504
rhand -18.7326 -25.3915
rfingers 7.12502
rthumb 7.56329 -55.2363
lclavicle -7.7526e-015 -7.7526e-015
lhumerus -21.9354 -1.10396 87.4564
lradius 20.5614
lwrist 6.84583
lhand -24.6252 -4.08606
lfingers 7.12502
lthumb 1.87351 25.8855
rfemur -16.0261 -2.38456 20.5046
rtibia 25.7508
rfoot -15.4804 -2.183
rtoes 7.5782
lfemur -15.46 7.43971 -18.0885
ltibia 25.3364
lfoot -12.749 9.10084
ltoes -6.84423
109
root 0.707213 17.4037 -13.9498 7.04036 -2.7483 -2.06126
lowerback -0.0971235 0.279622 0.752848
upperback 1.56156 0.341105 1.66706
thorax 1.64813 0.167967 1.29142
lowerneck -15.8683 -0.0768662 -2.43237
upperneck 17.8417 0.284755 1.02172
head 8.14545 0.0722294 0.775132
rclavicle 3.67752e-015 9.93923e-015
rhumerus -22.2165 -12.9357 -81.0155
rradius 26.313
rwrist 30.6764
rhand -18.7821 -25.335
rfingers 7.12502
rthumb 7.51545 -55.1815
lclavicle 3.67752e-015 9.93923e-015
lhumerus -21.8645 -1.14518 87.3962
lradius 20.685
lwrist 7.04989
lhand -24.6834 -4.24413
lfingers 7.12502
lthumb 1.81733 25.7279
rfemur -16.5334 -2.31333 20.5106
rtibia 26.1692
rfoot -15.5357 -2.19436
rtoes 7.38495
lfemur -15.9715 7.52444 -18.1316
ltibia 25.8131
lfoot -12.8126 9.14802
ltoes -6.9001
110
root 0.710085 17.3934 -13.9831 7.18601 -2.8417 -2.06029
lowerback 0.195848 0.301585 0.734827
upperback 1.60605 0.374865 1.67487
thorax 1.52854 0.184502 1.30833
lowerneck -15.9156 -0.078592 -2.47465
upperneck 17.7759 0.289336 1.04499
head 8.13163 0.0743879 0.790189
rclavicle 6.16232e-015 -1.19271e-015
rhumerus -22.0904 -12.8519 -80.9961
rradius 26.3988
rwrist 30.614
rhand -18.8442 -25.2684
rfingers 7.12502
rthumb 7.45556 -55.117
lclavicle 6.16232e-015 -1.19271e-015
lhumerus -21.7934 -1.17224 87.323
lradius 20.7982
lwrist 7.18152
lhand -24.7626 -4.43093
lfingers 7.12502
lthumb 1.74089 25.5417
rfemur -17.0807 -2.24884 20.5138
rtibia 26.6293
rfoot -15.605 -2.20666
rtoes 7.19696
lfemur -16.5183 7.61948 -18.1814
ltibia 26.3183
lfoot -12.8897 9.18242
ltoes -6.95616
